<?xml version="1.0" encoding="UTF-8" standalone="no"?>
<!-- Created with Inkscape (http://www.inkscape.org/) -->

<svg
   xmlns:dc="http://purl.org/dc/elements/1.1/"
   xmlns:cc="http://creativecommons.org/ns#"
   xmlns:rdf="http://www.w3.org/1999/02/22-rdf-syntax-ns#"
   xmlns:svg="http://www.w3.org/2000/svg"
   xmlns="http://www.w3.org/2000/svg"
   xmlns:xlink="http://www.w3.org/1999/xlink"
   xmlns:sodipodi="http://sodipodi.sourceforge.net/DTD/sodipodi-0.dtd"
   xmlns:inkscape="http://www.inkscape.org/namespaces/inkscape"
   width="744.09448819"
   height="1052.3622047"
   id="svg7568"
   version="1.1"
   inkscape:version="0.48.4 r9939"
   sodipodi:docname="ic_pulse.svg">
  <defs
     id="defs7570">
    <linearGradient
       id="linearGradient8612">
      <stop
         style="stop-color:#5cff00;stop-opacity:1;"
         offset="0"
         id="stop8614" />
      <stop
         id="stop8620"
         offset="0.56452644"
         style="stop-color:#45ff02;stop-opacity:0.89411765;" />
      <stop
         id="stop8616"
         offset="1"
         style="stop-color:#2eff04;stop-opacity:0.79215686;" />
    </linearGradient>
    <linearGradient
       id="linearGradient8494">
      <stop
         id="stop8504"
         offset="0"
         style="stop-color:#5cff00;stop-opacity:1;" />
      <stop
         style="stop-color:#2eff04;stop-opacity:0.79215686;"
         offset="1"
         id="stop8610" />
    </linearGradient>
    <linearGradient
       inkscape:collect="always"
       id="linearGradient7653">
      <stop
         style="stop-color:#00ff00;stop-opacity:1;"
         offset="0"
         id="stop7655" />
      <stop
         style="stop-color:#00ff00;stop-opacity:0;"
         offset="1"
         id="stop7657" />
    </linearGradient>
    <radialGradient
       inkscape:collect="always"
       xlink:href="#linearGradient7653"
       id="radialGradient7659"
       cx="458.06625"
       cy="192.16858"
       fx="458.06625"
       fy="192.16858"
       r="75"
       gradientUnits="userSpaceOnUse"
       gradientTransform="matrix(0.79594916,-0.75925304,0.69701302,0.73068478,-40.942358,457.92713)" />
    <radialGradient
       inkscape:collect="always"
       xlink:href="#linearGradient8612"
       id="radialGradient8603"
       gradientUnits="userSpaceOnUse"
       gradientTransform="matrix(0.02295184,-0.82725455,0.74644208,0.0208717,119.88151,674.58272)"
       cx="444.65515"
       cy="253.14664"
       fx="444.65515"
       fy="253.14664"
       r="73.721085"
       spreadMethod="reflect" />
    <radialGradient
       inkscape:collect="always"
       xlink:href="#linearGradient8612-1"
       id="radialGradient8603-0"
       gradientUnits="userSpaceOnUse"
       gradientTransform="matrix(0.02281472,-0.81908922,0.74198254,0.02066569,122.24331,671.4062)"
       cx="444.65515"
       cy="253.14664"
       fx="444.65515"
       fy="253.14664"
       r="73.721085"
       spreadMethod="reflect" />
    <linearGradient
       id="linearGradient8612-1">
      <stop
         style="stop-color:#5cff00;stop-opacity:1;"
         offset="0"
         id="stop8614-3" />
      <stop
         id="stop8620-5"
         offset="0.56452644"
         style="stop-color:#45ff02;stop-opacity:0.89411765;" />
      <stop
         id="stop8616-3"
         offset="1"
         style="stop-color:#2eff04;stop-opacity:0.79215686;" />
    </linearGradient>
  </defs>
  <sodipodi:namedview
     id="base"
     pagecolor="#030000"
     bordercolor="#666666"
     borderopacity="1.0"
     inkscape:pageopacity="0"
     inkscape:pageshadow="2"
     inkscape:zoom="5.6568543"
     inkscape:cx="299.8916"
     inkscape:cy="743.04579"
     inkscape:document-units="px"
     inkscape:current-layer="layer1"
     showgrid="false"
     inkscape:window-width="1920"
     inkscape:window-height="1018"
     inkscape:window-x="-8"
     inkscape:window-y="-8"
     inkscape:window-maximized="1"
     showguides="true"
     inkscape:guide-bbox="true">
    <sodipodi:guide
       orientation="0,1"
       position="488.91383,1470.7821"
       id="guide8595" />
  </sodipodi:namedview>
  <metadata
     id="metadata7573">
    <rdf:RDF>
      <cc:Work
         rdf:about="">
        <dc:format>image/svg+xml</dc:format>
        <dc:type
           rdf:resource="http://purl.org/dc/dcmitype/StillImage" />
        <dc:title></dc:title>
      </cc:Work>
    </rdf:RDF>
  </metadata>
  <g
     inkscape:groupmode="layer"
     id="layer3"
     inkscape:label="selection">
    <rect
       style="fill:#000000;fill-opacity:0;stroke:none"
       id="rect3875"
       width="147.461"
       height="147.461"
       x="245.59778"
       y="233.68779"
       inkscape:export-filename="/home/peta/workspace/pulsar/data/ic_pulse2.png"
       inkscape:export-xdpi="288"
       inkscape:export-ydpi="288" />
  </g>
  <g
     inkscape:groupmode="layer"
     id="layer2"
     inkscape:label="background"
     style="display:inline">
    <rect
       style="opacity:0.96747963;fill:none;stroke:none"
       id="rect8608"
       width="148"
       height="148"
       x="245.67094"
       y="232.37741"
       inkscape:export-filename="/home/peta/workspace/pulsar/res/drawable-ldpi/ic_pulse.png"
       inkscape:export-xdpi="21.891891"
       inkscape:export-ydpi="21.891891" />
    <path
       style="opacity:0.96747963;fill:#000000;fill-opacity:1;stroke:#0b0b06;stroke-width:0.3990401;stroke-linecap:round;stroke-linejoin:round;stroke-miterlimit:0.2;stroke-opacity:1;stroke-dasharray:none;display:inline"
       d="m 316.68367,367.8768 c -5.70098,-3.04766 -17.48291,-11.3537 -26.51485,-18.69245 -20.64097,-16.7715 -35.01027,-31.96599 -40.2792,-42.59234 -0.4821,-0.97229 -1.22338,-2.79057 -1.64731,-4.04064 -4.96208,-14.63243 -0.42758,-31.31301 11.88132,-43.70645 6.21745,-6.26015 11.5477,-8.95371 19.202,-9.70342 4.89622,-0.47955 9.97361,-0.2124 12.72814,0.66973 3.7374,1.19688 9.71414,4.75034 13.83885,8.22784 3.04981,2.57128 4.74097,4.42838 8.74186,9.59967 3.55715,4.59775 4.53043,5.74424 4.87642,5.74424 0.38899,0 1.97383,-1.85627 4.85127,-5.68216 6.15079,-8.17813 13.32876,-14.08511 21.0312,-17.30723 4.41579,-1.84722 13.16233,-2.00667 19.40463,-0.35375 4.86945,1.28941 8.76045,3.65759 13.38345,8.14557 7.26227,7.05017 11.80048,15.04403 13.82513,24.35239 0.76437,3.51423 0.82918,11.76823 0.11843,15.08299 -1.14014,5.31724 -2.90291,9.45872 -6.00079,14.09834 -9.74052,14.58819 -35.70855,38.27902 -57.37692,52.34541 -3.48961,2.26534 -8.64975,5.0343 -9.36686,5.02631 -0.23917,-0.003 -1.45271,-0.54898 -2.69677,-1.21405 l 0,0 z"
       id="path8492-6"
       inkscape:connector-curvature="0"
       inkscape:export-filename="pulse.png"
       inkscape:export-xdpi="311.39066"
       inkscape:export-ydpi="311.39066" />
  </g>
  <g
     inkscape:label="main"
     inkscape:groupmode="layer"
     id="layer1"
     style="display:inline">
    <path
       style="opacity:0.96747963;fill:url(#radialGradient8603);fill-opacity:1;stroke:none"
       d="m 316.46663,368.20458 c -5.76293,-3.07801 -17.67286,-11.4668 -26.80292,-18.87863 -20.86522,-16.93857 -35.39063,-32.2844 -40.71681,-43.0166 -0.48732,-0.98197 -1.23667,-2.81837 -1.6652,-4.08088 -5.01598,-14.77819 -0.43223,-31.62491 12.0104,-44.14181 6.285,-6.32249 11.67316,-9.0429 19.41061,-9.80006 4.94941,-0.48433 10.08197,-0.21453 12.86642,0.67639 3.778,1.2088 9.81968,4.79765 13.9892,8.3098 3.08296,2.59689 4.79248,4.47249 8.83684,9.69529 3.59579,4.64354 4.57966,5.80146 4.9294,5.80146 0.39321,0 1.99528,-1.87475 4.90397,-5.73876 6.21761,-8.25958 13.47357,-14.22541 21.2597,-17.47963 4.46374,-1.86561 13.30531,-2.02665 19.61542,-0.35727 4.92237,1.30225 8.85562,3.69402 13.52885,8.22671 7.34117,7.12039 11.92868,15.19387 13.97534,24.59496 0.77267,3.54922 0.83818,11.88545 0.1197,15.23322 -1.15252,5.3702 -2.93444,9.55295 -6.06598,14.23877 -9.84633,14.73349 -36.09649,38.6603 -58.00026,52.86682 -3.52752,2.28789 -8.74372,5.08444 -9.46861,5.07636 -0.24177,-0.003 -1.46851,-0.55444 -2.72607,-1.22614 l 0,0 z"
       id="path8492"
       inkscape:connector-curvature="0"
       inkscape:export-filename="pulse.png"
       inkscape:export-xdpi="311.39066"
       inkscape:export-ydpi="311.39066" />
  </g>
</svg>
