<?xml version="1.0" encoding="UTF-8" standalone="no"?>
<!-- Created with Inkscape (http://www.inkscape.org/) -->

<svg
   xmlns:osb="http://www.openswatchbook.org/uri/2009/osb"
   xmlns:dc="http://purl.org/dc/elements/1.1/"
   xmlns:cc="http://creativecommons.org/ns#"
   xmlns:rdf="http://www.w3.org/1999/02/22-rdf-syntax-ns#"
   xmlns:svg="http://www.w3.org/2000/svg"
   xmlns="http://www.w3.org/2000/svg"
   xmlns:xlink="http://www.w3.org/1999/xlink"
   xmlns:sodipodi="http://sodipodi.sourceforge.net/DTD/sodipodi-0.dtd"
   xmlns:inkscape="http://www.inkscape.org/namespaces/inkscape"
   width="744.09448819"
   height="1052.3622047"
   id="svg2"
   version="1.1"
   inkscape:version="0.48.4 r9939"
   sodipodi:docname="ic_restart.svg"
   inkscape:export-filename="/home/peta/workspace/pulsar/data/ic_call.png"
   inkscape:export-xdpi="21.891891"
   inkscape:export-ydpi="21.891891">
  <defs
     id="defs4">
    <linearGradient
       id="linearGradient7051">
      <stop
         style="stop-color:#fff3f3;stop-opacity:0.02238806;"
         offset="0"
         id="stop7053" />
      <stop
         style="stop-color:#c00000;stop-opacity:1;"
         offset="1"
         id="stop7055" />
    </linearGradient>
    <linearGradient
       id="linearGradient7045">
      <stop
         id="stop7047"
         offset="0"
         style="stop-color:#3e3131;stop-opacity:1;" />
      <stop
         id="stop7049"
         offset="1"
         style="stop-color:#c00000;stop-opacity:0;" />
    </linearGradient>
    <linearGradient
       id="linearGradient5798"
       osb:paint="solid">
      <stop
         style="stop-color:#bf0000;stop-opacity:1;"
         offset="0"
         id="stop5800" />
    </linearGradient>
    <linearGradient
       id="linearGradient5758">
      <stop
         id="stop5760"
         offset="0"
         style="stop-color:#e8e8e8;stop-opacity:1;" />
      <stop
         id="stop5762"
         offset="1"
         style="stop-color:#444442;stop-opacity:1;" />
    </linearGradient>
    <linearGradient
       id="linearGradient5702"
       osb:paint="solid">
      <stop
         style="stop-color:#00ff00;stop-opacity:0.44292241;"
         offset="0"
         id="stop5704" />
    </linearGradient>
    <linearGradient
       id="linearGradient4097">
      <stop
         style="stop-color:#ffb500;stop-opacity:1;"
         offset="0"
         id="stop4099" />
      <stop
         style="stop-color:#f5ff00;stop-opacity:0.67647058;"
         offset="1"
         id="stop4101" />
    </linearGradient>
    <inkscape:perspective
       sodipodi:type="inkscape:persp3d"
       inkscape:vp_x="640 : 967.60966 : 1"
       inkscape:vp_y="0 : 1000 : 0"
       inkscape:vp_z="674.09448 : 686.18109 : 1"
       inkscape:persp3d-origin="372.04724 : 350.78739 : 1"
       id="perspective3904" />
    <linearGradient
       id="linearGradient3892">
      <stop
         style="stop-color:#413131;stop-opacity:1"
         offset="0"
         id="stop3894" />
      <stop
         style="stop-color:#c41a02;stop-opacity:0.78676468;"
         offset="1"
         id="stop3896" />
    </linearGradient>
    <radialGradient
       inkscape:collect="always"
       xlink:href="#linearGradient5758"
       id="radialGradient5756"
       cx="299.04361"
       cy="330.84036"
       fx="299.04361"
       fy="330.84036"
       r="119.37476"
       gradientTransform="matrix(1.8138019,-0.02083357,0.01106671,0.96348569,-247.02356,18.310532)"
       gradientUnits="userSpaceOnUse"
       spreadMethod="reflect" />
    <linearGradient
       inkscape:collect="always"
       xlink:href="#linearGradient6937-4"
       id="linearGradient6948-5"
       gradientUnits="userSpaceOnUse"
       x1="195.2453"
       y1="257.05222"
       x2="302.85303"
       y2="138.52258" />
    <linearGradient
       inkscape:collect="always"
       id="linearGradient6937-4">
      <stop
         style="stop-color:#413131;stop-opacity:1"
         offset="0"
         id="stop6939-6" />
      <stop
         style="stop-color:#c00000;stop-opacity:0;"
         offset="1"
         id="stop6941-2" />
    </linearGradient>
    <linearGradient
       inkscape:collect="always"
       xlink:href="#linearGradient6937-3"
       id="linearGradient6948-9"
       gradientUnits="userSpaceOnUse"
       x1="195.2453"
       y1="257.05222"
       x2="302.85303"
       y2="138.52258"
       gradientTransform="matrix(0.00508111,0.54819039,-0.18601065,0.1107152,267.97274,135.13465)" />
    <linearGradient
       id="linearGradient6937-3">
      <stop
         style="stop-color:#413131;stop-opacity:1"
         offset="0"
         id="stop6939-5" />
      <stop
         style="stop-color:#c00000;stop-opacity:0;"
         offset="1"
         id="stop6941-9" />
    </linearGradient>
    <linearGradient
       inkscape:collect="always"
       xlink:href="#linearGradient7051-0"
       id="linearGradient7059-6"
       x1="178.22305"
       y1="305.28506"
       x2="164.69394"
       y2="294.22916"
       gradientUnits="userSpaceOnUse"
       gradientTransform="matrix(1.4977287,0,0,0.92442952,-32.112399,23.864113)" />
    <linearGradient
       id="linearGradient7051-0">
      <stop
         style="stop-color:#fff3f3;stop-opacity:0.02238806;"
         offset="0"
         id="stop7053-1" />
      <stop
         style="stop-color:#c00000;stop-opacity:1;"
         offset="1"
         id="stop7055-4" />
    </linearGradient>
    <radialGradient
       inkscape:collect="always"
       xlink:href="#linearGradient5758-3"
       id="radialGradient5756-9"
       cx="299.04361"
       cy="330.84036"
       fx="299.04361"
       fy="330.84036"
       r="119.37476"
       gradientTransform="matrix(1.8138019,-0.02083357,0.01106671,0.96348569,-247.02356,18.310532)"
       gradientUnits="userSpaceOnUse"
       spreadMethod="reflect" />
    <linearGradient
       id="linearGradient5758-3">
      <stop
         id="stop5760-9"
         offset="0"
         style="stop-color:#e8e8e8;stop-opacity:1;" />
      <stop
         id="stop5762-1"
         offset="1"
         style="stop-color:#444442;stop-opacity:1;" />
    </linearGradient>
    <radialGradient
       r="119.37476"
       fy="330.84036"
       fx="299.04361"
       cy="330.84036"
       cx="299.04361"
       spreadMethod="reflect"
       gradientTransform="matrix(1.8138019,-0.02083357,0.01106671,0.96348569,-209.43383,19.088541)"
       gradientUnits="userSpaceOnUse"
       id="radialGradient3073"
       xlink:href="#linearGradient5758-3"
       inkscape:collect="always" />
    <radialGradient
       r="119.37476"
       fy="330.84036"
       fx="299.04361"
       cy="330.84036"
       cx="299.04361"
       spreadMethod="reflect"
       gradientTransform="matrix(1.8138019,-0.02083357,0.01106671,0.96348569,-209.43383,19.088541)"
       gradientUnits="userSpaceOnUse"
       id="radialGradient3073-8"
       xlink:href="#linearGradient5758-3-0"
       inkscape:collect="always" />
    <linearGradient
       id="linearGradient5758-3-0">
      <stop
         id="stop5760-9-1"
         offset="0"
         style="stop-color:#e8e8e8;stop-opacity:1;" />
      <stop
         id="stop5762-1-8"
         offset="1"
         style="stop-color:#444442;stop-opacity:1;" />
    </linearGradient>
    <radialGradient
       r="119.37476"
       fy="330.84036"
       fx="299.04361"
       cy="330.84036"
       cx="299.04361"
       spreadMethod="reflect"
       gradientTransform="matrix(1.8138019,-0.02083357,0.01106671,0.96348569,-257.41606,32.473062)"
       gradientUnits="userSpaceOnUse"
       id="radialGradient3992"
       xlink:href="#linearGradient5758-3-0"
       inkscape:collect="always" />
    <radialGradient
       r="119.37476"
       fy="330.84036"
       fx="299.04361"
       cy="330.84036"
       cx="299.04361"
       spreadMethod="reflect"
       gradientTransform="matrix(1.8138019,-0.02083357,0.01106671,0.96348569,-257.41606,32.473062)"
       gradientUnits="userSpaceOnUse"
       id="radialGradient3992-6"
       xlink:href="#linearGradient5758-3-0-0"
       inkscape:collect="always" />
    <linearGradient
       id="linearGradient5758-3-0-0">
      <stop
         id="stop5760-9-1-9"
         offset="0"
         style="stop-color:#e8e8e8;stop-opacity:1;" />
      <stop
         id="stop5762-1-8-3"
         offset="1"
         style="stop-color:#444442;stop-opacity:1;" />
    </linearGradient>
    <radialGradient
       r="119.37476"
       fy="330.84036"
       fx="299.04361"
       cy="330.84036"
       cx="299.04361"
       spreadMethod="reflect"
       gradientTransform="matrix(1.8138019,-0.02083357,0.01106671,0.96348569,-257.41606,32.473062)"
       gradientUnits="userSpaceOnUse"
       id="radialGradient4032-1"
       xlink:href="#linearGradient5758-3-0-0-7"
       inkscape:collect="always" />
    <linearGradient
       id="linearGradient5758-3-0-0-7">
      <stop
         id="stop5760-9-1-9-4"
         offset="0"
         style="stop-color:#e8e8e8;stop-opacity:1;" />
      <stop
         id="stop5762-1-8-3-0"
         offset="1"
         style="stop-color:#444442;stop-opacity:1;" />
    </linearGradient>
    <filter
       color-interpolation-filters="sRGB"
       inkscape:collect="always"
       id="filter5792-8-4-0-9">
      <feGaussianBlur
         inkscape:collect="always"
         stdDeviation="0.1776604"
         id="feGaussianBlur5794-2-8-0-4" />
    </filter>
    <radialGradient
       r="119.37476"
       fy="330.84036"
       fx="299.04361"
       cy="330.84036"
       cx="299.04361"
       spreadMethod="reflect"
       gradientTransform="matrix(1.8138019,-0.02083357,0.01106671,0.96348569,-257.41606,32.473062)"
       gradientUnits="userSpaceOnUse"
       id="radialGradient3232"
       xlink:href="#linearGradient5758-3-0-0-7"
       inkscape:collect="always" />
    <radialGradient
       inkscape:collect="always"
       xlink:href="#linearGradient8612"
       id="radialGradient8603"
       gradientUnits="userSpaceOnUse"
       gradientTransform="matrix(0.02281472,-0.81908922,0.74198254,0.02066569,121.60299,671.07969)"
       cx="444.65515"
       cy="253.14664"
       fx="444.65515"
       fy="253.14664"
       r="73.721085"
       spreadMethod="reflect" />
    <linearGradient
       id="linearGradient8612">
      <stop
         style="stop-color:#5cff00;stop-opacity:1;"
         offset="0"
         id="stop8614" />
      <stop
         id="stop8620"
         offset="0.56452644"
         style="stop-color:#45ff02;stop-opacity:0.89411765;" />
      <stop
         id="stop8616"
         offset="1"
         style="stop-color:#2eff04;stop-opacity:0.79215686;" />
    </linearGradient>
    <radialGradient
       r="73.721085"
       fy="253.14664"
       fx="444.65515"
       cy="253.14664"
       cx="444.65515"
       spreadMethod="reflect"
       gradientTransform="matrix(0.00887996,-0.31880645,0.28879493,0.00804352,160.67234,484.43478)"
       gradientUnits="userSpaceOnUse"
       id="radialGradient3022"
       xlink:href="#linearGradient8612"
       inkscape:collect="always" />
  </defs>
  <sodipodi:namedview
     id="base"
     pagecolor="#ffffff"
     bordercolor="#666666"
     borderopacity="1.0"
     inkscape:pageopacity="0.0"
     inkscape:pageshadow="2"
     inkscape:zoom="5.6"
     inkscape:cx="195.80297"
     inkscape:cy="724.72727"
     inkscape:document-units="px"
     inkscape:current-layer="layer2"
     showgrid="false"
     inkscape:window-width="1920"
     inkscape:window-height="1018"
     inkscape:window-x="-8"
     inkscape:window-y="-8"
     inkscape:window-maximized="1"
     showguides="true"
     inkscape:guide-bbox="true"
     inkscape:snap-global="false">
    <inkscape:grid
       type="xygrid"
       id="grid5804" />
  </sodipodi:namedview>
  <metadata
     id="metadata7">
    <rdf:RDF>
      <cc:Work
         rdf:about="">
        <dc:format>image/svg+xml</dc:format>
        <dc:type
           rdf:resource="http://purl.org/dc/dcmitype/StillImage" />
        <dc:title></dc:title>
      </cc:Work>
    </rdf:RDF>
  </metadata>
  <g
     inkscape:groupmode="layer"
     id="layer2"
     inkscape:label="selection"
     style="display:inline">
    <rect
       style="opacity:0.98999999;fill:url(#radialGradient3232);fill-opacity:1;stroke:#d6d6d6;stroke-width:1.89999998;stroke-linecap:round;stroke-linejoin:round;stroke-miterlimit:4;stroke-opacity:1;stroke-dasharray:none;display:inline;filter:url(#filter5792-8-4-0-9)"
       id="rect4055"
       width="226.85616"
       height="128.46465"
       x="178.00095"
       y="281.7807"
       inkscape:export-filename="C:\Users\petra\Development\src\personal\pulsar\res\drawable-hdpi\ic_restart.png"
       inkscape:export-xdpi="150.61449"
       inkscape:export-ydpi="150.61449"
       ry="8.0812206"
       transform="matrix(0.59598335,0,0,1.003331,32.741722,-33.017691)" />
    <path
       style="fill:#000000;fill-opacity:1;stroke:#dbdbdb;stroke-width:0.94468713000000004;stroke-miterlimit:0.40000001000000002;stroke-opacity:0.99215686;stroke-dasharray:none;display:inline"
       d="m 240.23386,313.42273 c -4.10506,0.11716 -6.93814,2.73209 -7.64541,9.97807 -0.004,10.99473 -10.55631,25.60583 -24.56463,25.60583 -14.00829,0 -25.33926,-11.33095 -25.33926,-25.33926 0,-11.92938 8.25728,-21.89407 19.35296,-24.60122 -1.42017,1.93834 -3.49687,4.24643 -6.31431,7.29836 -4.83881,4.3838 -3.82014,9.38252 -0.36902,12.83364 3.45113,3.45112 9.17335,3.29127 12.83364,-0.36903 l 19.84499,-19.84498 c 3.66029,-3.66029 3.82015,-9.38253 0.36902,-12.83363 -0.27782,-0.27782 -0.55601,-0.54807 -0.86104,-0.77905 -6.7055,-6.7063 -13.48371,-13.4837 -20.21401,-20.214 -2.05892,-2.05893 -4.74603,-3.00266 -7.33937,-2.82915 -2.01704,0.13496 -3.9844,0.95027 -5.49427,2.46013 -3.45112,3.45113 -2.31309,8.93904 0.41002,12.83364 0.47622,0.96613 2.88708,3.83422 4.2232,5.41227 -19.45602,3.77844 -34.15471,20.89231 -34.15471,41.45306 0,23.33136 18.90078,42.23211 42.23212,42.23211 23.33135,0 42.27311,-18.90075 42.18965,-43.22495 -0.0835,-7.33975 -4.82199,-10.19564 -9.15957,-10.07184 z"
       id="path3105-6"
       inkscape:connector-curvature="0"
       sodipodi:nodetypes="scssccssssccssccsscs"
       inkscape:export-filename="C:\Users\petra\Development\src\personal\pulsar\res\drawable-hdpi\ic_restart.png"
       inkscape:export-xdpi="150.61449"
       inkscape:export-ydpi="150.61449" />
    <path
       style="opacity:0.96747963;fill:url(#radialGradient3022);fill-opacity:1;stroke:#0b0b06;stroke-width:0.15568826;stroke-linecap:round;stroke-linejoin:round;stroke-miterlimit:0.2;stroke-opacity:1;stroke-dasharray:none;display:inline"
       d="m 236.73018,366.36309 c -2.22965,-1.1862 -6.83755,-4.41906 -10.36991,-7.27541 -8.07266,-6.52778 -13.69248,-12.44175 -15.75315,-16.5777 -0.18855,-0.37843 -0.47846,-1.08612 -0.64426,-1.57269 -1.94065,-5.69519 -0.16722,-12.18757 4.64677,-17.01131 2.43163,-2.43656 4.51628,-3.48495 7.50988,-3.77674 1.9149,-0.18665 3.90066,-0.0827 4.97795,0.26067 1.46169,0.46585 3.79919,1.8489 5.41236,3.20242 1.19278,1.00078 1.85418,1.7236 3.41893,3.73636 1.39119,1.78951 1.77184,2.23575 1.90717,2.23575 0.15213,0 0.77195,-0.72249 1.89731,-2.21159 2.40557,-3.18306 5.21286,-5.48218 8.22528,-6.73628 1.72701,-0.71897 5.14777,-0.78104 7.58912,-0.13768 1.90444,0.50186 3.42619,1.42359 5.23424,3.1704 2.84027,2.74405 4.61515,5.8554 5.40699,9.47836 0.29895,1.36781 0.32429,4.58042 0.0463,5.87058 -0.4459,2.06956 -1.13532,3.68149 -2.34689,5.48733 -3.80951,5.67796 -13.96557,14.89885 -22.44004,20.37375 -1.36477,0.88169 -3.3829,1.95942 -3.66337,1.95632 -0.0935,-6.7e-4 -0.56814,-0.21368 -1.05469,-0.47254 l 0,0 z"
       id="path8492"
       inkscape:connector-curvature="0"
       inkscape:export-filename="C:\Users\petra\Development\src\personal\pulsar\res\drawable-hdpi\ic_restart.png"
       inkscape:export-xdpi="150.61449"
       inkscape:export-ydpi="150.61449" />
  </g>
  <g
     inkscape:label="main"
     inkscape:groupmode="layer"
     id="layer1"
     style="display:inline">
    <path
       style="opacity:0.96747963;fill:none;stroke:none"
       d="m 203.4703,529.38136 c -1.35356,-3.15773 -3.92425,-11.32234 -5.16884,-16.41646 -0.78941,-3.23106 -1.07512,-6.09424 -1.11448,-11.16885 -0.0527,-6.78722 -0.0437,-6.84278 1.66624,-10.32131 4.31444,-8.7769 13.90328,-21.19433 21.03825,-27.24427 18.638,-15.80366 43.89735,-22.12931 88.61188,-22.19091 34.75626,-0.0479 53.8514,3.0587 70.96323,11.54495 8.19327,4.06327 13.78439,8.22545 26.19368,19.49929 15.38467,13.97695 16.27391,14.91157 17.1988,18.07648 1.78861,6.12051 0.31907,17.74912 -3.77365,29.86122 -3.41447,10.1049 -2.94186,9.42852 -6.88294,9.85058 -1.86892,0.20014 -6.81707,0.2095 -10.9959,0.0208 -17.89795,-0.80824 -29.64845,-4.11848 -34.60402,-9.74831 -2.42115,-2.75056 -3.84271,-7.83803 -3.3321,-11.92483 0.74069,-5.92833 7.5155,-13.70835 15.26469,-17.52959 2.33506,-1.15145 4.61372,-2.65543 5.06369,-3.34217 1.06882,-1.63123 0.96976,-4.07797 -0.23092,-5.7034 -2.59494,-3.51295 -11.68802,-9.30642 -20.32203,-12.94778 -18.58554,-7.83839 -40.32702,-11.13963 -64.94044,-9.86059 -20.40419,1.06031 -29.58189,3.27613 -40.14647,9.69277 -10.81607,6.56938 -17.64091,13.302 -17.64091,17.40251 0,1.63924 2.30135,3.90967 4.63616,4.57386 1.50319,0.42762 1.99047,1.09779 4.69452,6.45661 2.89147,5.73027 3.01777,6.14012 3.03046,9.83399 0.0238,6.92697 -2.94498,11.09471 -10.7838,15.13907 -6.87201,3.54555 -17.17971,6.34945 -29.0036,7.88957 -8.57813,1.11734 -8.30604,1.15901 -9.4215,-1.44324 l 0,0 z"
       id="path2987"
       inkscape:connector-curvature="0" />
    <path
       style="opacity:0.96747963;fill:none;stroke:none"
       d="m 203.4703,529.38136 c -1.35356,-3.15773 -3.92425,-11.32234 -5.16884,-16.41646 -0.78941,-3.23106 -1.07512,-6.09424 -1.11448,-11.16885 -0.0527,-6.78722 -0.0437,-6.84278 1.66624,-10.32131 4.31444,-8.7769 13.90328,-21.19433 21.03825,-27.24427 18.638,-15.80366 43.89735,-22.12931 88.61188,-22.19091 34.75626,-0.0479 53.8514,3.0587 70.96323,11.54495 8.19327,4.06327 13.78439,8.22545 26.19368,19.49929 15.38467,13.97695 16.27391,14.91157 17.1988,18.07648 1.78861,6.12051 0.31907,17.74912 -3.77365,29.86122 -3.41447,10.1049 -2.94186,9.42852 -6.88294,9.85058 -1.86892,0.20014 -6.81707,0.2095 -10.9959,0.0208 -17.89795,-0.80824 -29.64845,-4.11848 -34.60402,-9.74831 -2.42115,-2.75056 -3.84271,-7.83803 -3.3321,-11.92483 0.74069,-5.92833 7.5155,-13.70835 15.26469,-17.52959 2.33506,-1.15145 4.61372,-2.65543 5.06369,-3.34217 1.06882,-1.63123 0.96976,-4.07797 -0.23092,-5.7034 -2.59494,-3.51295 -11.68802,-9.30642 -20.32203,-12.94778 -18.58554,-7.83839 -40.32702,-11.13963 -64.94044,-9.86059 -20.40419,1.06031 -29.58189,3.27613 -40.14647,9.69277 -10.81607,6.56938 -17.64091,13.302 -17.64091,17.40251 0,1.63924 2.30135,3.90967 4.63616,4.57386 1.50319,0.42762 1.99047,1.09779 4.69452,6.45661 2.89147,5.73027 3.01777,6.14012 3.03046,9.83399 0.0238,6.92697 -2.94498,11.09471 -10.7838,15.13907 -6.87201,3.54555 -17.17971,6.34945 -29.0036,7.88957 -8.57813,1.11734 -8.30604,1.15901 -9.4215,-1.44324 l 0,0 z"
       id="path2989"
       inkscape:connector-curvature="0" />
    <path
       style="opacity:0.96747963;fill:none;stroke:none"
       d="m 203.4703,529.38136 c -1.35356,-3.15773 -3.92425,-11.32234 -5.16884,-16.41646 -0.78941,-3.23106 -1.07512,-6.09424 -1.11448,-11.16885 -0.0527,-6.78722 -0.0437,-6.84278 1.66624,-10.32131 4.31444,-8.7769 13.90328,-21.19433 21.03825,-27.24427 18.638,-15.80366 43.89735,-22.12931 88.61188,-22.19091 34.75626,-0.0479 53.8514,3.0587 70.96323,11.54495 8.19327,4.06327 13.78439,8.22545 26.19368,19.49929 15.38467,13.97695 16.27391,14.91157 17.1988,18.07648 1.78861,6.12051 0.31907,17.74912 -3.77365,29.86122 -3.41447,10.1049 -2.94186,9.42852 -6.88294,9.85058 -1.86892,0.20014 -6.81707,0.2095 -10.9959,0.0208 -17.89795,-0.80824 -29.64845,-4.11848 -34.60402,-9.74831 -2.42115,-2.75056 -3.84271,-7.83803 -3.3321,-11.92483 0.74069,-5.92833 7.5155,-13.70835 15.26469,-17.52959 2.33506,-1.15145 4.61372,-2.65543 5.06369,-3.34217 1.06882,-1.63123 0.96976,-4.07797 -0.23092,-5.7034 -2.59494,-3.51295 -11.68802,-9.30642 -20.32203,-12.94778 -18.58554,-7.83839 -40.32702,-11.13963 -64.94044,-9.86059 -20.40419,1.06031 -29.58189,3.27613 -40.14647,9.69277 -10.81607,6.56938 -17.64091,13.302 -17.64091,17.40251 0,1.63924 2.30135,3.90967 4.63616,4.57386 1.50319,0.42762 1.99047,1.09779 4.69452,6.45661 2.89147,5.73027 3.01777,6.14012 3.03046,9.83399 0.0238,6.92697 -2.94498,11.09471 -10.7838,15.13907 -6.87201,3.54555 -17.17971,6.34945 -29.0036,7.88957 -8.57813,1.11734 -8.30604,1.15901 -9.4215,-1.44324 l 0,0 z"
       id="path2991"
       inkscape:connector-curvature="0" />
    <g
       inkscape:groupmode="layer"
       id="layer4"
       inkscape:label="icon" />
    <g
       inkscape:groupmode="layer"
       id="layer3"
       inkscape:label="Shading"
       style="opacity:0.98999999" />
  </g>
</svg>
